<?xml version="1.0" encoding="utf-8"?>
<!-- Generator: Adobe Illustrator 16.0.0, SVG Export Plug-In . SVG Version: 6.00 Build 0)  -->
<!DOCTYPE svg PUBLIC "-//W3C//DTD SVG 1.1//EN" "http://www.w3.org/Graphics/SVG/1.1/DTD/svg11.dtd">
<svg version="1.1" id="Layer_1" xmlns="http://www.w3.org/2000/svg" xmlns:xlink="http://www.w3.org/1999/xlink" x="0px" y="0px"
	 width="330px" height="330px" viewBox="0 0 330 330" enable-background="new 0 0 330 330" xml:space="preserve">
<g>
	<g id="g20" transform="translate(3.7383,27.7314)">
		<path id="path22" inkscape:connector-curvature="0" fill="#FFFFFF" d="M9.526,168.475c0-2.172,0.595-3.951,1.79-5.348
			c1.188-1.398,2.771-2.093,4.743-2.093c1.974,0,3.554,0.694,4.752,2.093c1.189,1.396,1.786,3.176,1.786,5.348v0.453
			c0,2.189-0.596,3.978-1.781,5.365c-1.19,1.389-2.765,2.083-4.739,2.083c-1.981,0-3.572-0.694-4.76-2.083
			c-1.195-1.388-1.79-3.176-1.79-5.365V168.475z M11.16,168.928c0,1.707,0.438,3.14,1.304,4.307
			c0.861,1.164,2.069,1.745,3.612,1.745c1.522,0,2.721-0.581,3.591-1.745c0.87-1.167,1.305-2.6,1.305-4.307v-0.453
			c0-1.683-0.438-3.114-1.308-4.291c-0.88-1.173-2.078-1.752-3.605-1.752c-1.535,0-2.733,0.579-3.595,1.752
			c-0.866,1.177-1.304,2.608-1.304,4.291V168.928z"/>
	</g>
	<g id="g24" transform="translate(34.4653,40.0068)">
		<path id="path26" inkscape:connector-curvature="0" fill="#FFFFFF" d="M-3.267,149.035l0.147,2.58
			c0.478-0.906,1.114-1.609,1.922-2.104c0.805-0.502,1.758-0.754,2.861-0.754c1.604,0,2.822,0.492,3.665,1.47
			c0.831,0.978,1.251,2.51,1.251,4.584v9.003H4.943v-9.014c0-1.687-0.323-2.893-0.946-3.596c-0.638-0.7-1.537-1.049-2.703-1.049
			c-1.148,0-2.082,0.302-2.808,0.907c-0.722,0.607-1.248,1.414-1.561,2.421v10.33h-1.64v-14.779H-3.267z"/>
	</g>
	<path id="path28" inkscape:connector-curvature="0" fill="#FFFFFF" d="M45.525,203.821h1.622V182.51h-1.622V203.821z"/>
	<path id="path30" inkscape:connector-curvature="0" fill="#FFFFFF" d="M51.873,184.806h1.626v-2.296h-1.626V184.806z
		 M51.873,203.821h1.626v-14.779h-1.626V203.821z"/>
	<g id="g32" transform="translate(82.9028,40.0068)">
		<path id="path34" inkscape:connector-curvature="0" fill="#FFFFFF" d="M-23.434,149.035l0.151,2.58
			c0.475-0.906,1.111-1.609,1.918-2.104c0.81-0.502,1.761-0.754,2.866-0.754c1.603,0,2.82,0.492,3.663,1.47
			c0.828,0.978,1.253,2.51,1.253,4.584v9.003h-1.64v-9.014c0-1.687-0.321-2.893-0.948-3.596c-0.637-0.7-1.532-1.049-2.697-1.049
			c-1.148,0-2.082,0.302-2.805,0.907c-0.726,0.607-1.25,1.414-1.569,2.421v10.33h-1.636v-14.779H-23.434z"/>
	</g>
	<g id="g36" transform="translate(116.606,14.1934)">
		<path id="path38" inkscape:connector-curvature="0" fill="#FFFFFF" d="M-37.466,189.914c-1.851,0-3.386-0.686-4.612-2.048
			c-1.225-1.368-1.835-3.096-1.835-5.195v-0.747c0-2.109,0.611-3.862,1.821-5.259c1.218-1.398,2.689-2.093,4.42-2.093
			c1.813,0,3.234,0.57,4.279,1.727c1.035,1.14,1.552,2.67,1.552,4.582v1.398h-10.438v0.392c0,1.663,0.448,3.052,1.326,4.172
			c0.883,1.114,2.052,1.675,3.486,1.675c1.022,0,1.891-0.134,2.604-0.419c0.72-0.283,1.335-0.694,1.851-1.22l0.692,1.123
			c-0.556,0.586-1.257,1.048-2.109,1.396C-35.279,189.735-36.291,189.914-37.466,189.914 M-37.672,175.97
			c-1.211,0-2.224,0.454-3.047,1.38c-0.821,0.925-1.299,2.072-1.431,3.46l0.027,0.071h8.662v-0.408c0-1.272-0.379-2.349-1.137-3.213
			C-35.353,176.397-36.378,175.97-37.672,175.97"/>
	</g>
	<g id="g40" transform="translate(148.7139,40.0068)">
		<path id="path42" inkscape:connector-curvature="0" fill="#FFFFFF" d="M-50.835,149.035l0.161,1.948
			c0.478-0.711,1.07-1.254,1.784-1.646c0.712-0.385,1.541-0.58,2.48-0.58c0.946,0,1.752,0.215,2.429,0.634
			c0.671,0.417,1.188,1.051,1.528,1.894c0.457-0.791,1.047-1.4,1.778-1.858c0.729-0.445,1.582-0.669,2.569-0.669
			c1.453,0,2.602,0.499,3.449,1.515c0.837,1.006,1.263,2.536,1.263,4.591v8.951h-3.991v-8.986c0-1.122-0.179-1.899-0.543-2.341
			c-0.365-0.435-0.905-0.657-1.621-0.657c-0.57,0-1.061,0.123-1.478,0.381c-0.408,0.25-0.743,0.598-0.983,1.042
			c0,0.179,0,0.329,0.008,0.445c0.009,0.126,0.016,0.249,0.016,0.383v9.733h-3.975v-8.986c0-1.095-0.182-1.868-0.545-2.322
			c-0.366-0.445-0.913-0.676-1.643-0.676c-0.537,0-1.009,0.107-1.412,0.31c-0.405,0.206-0.741,0.499-1,0.872v10.803h-3.974v-14.779
			H-50.835z"/>
	</g>
	<g id="g44" transform="translate(198.7002,14.6963)">
		<path id="path46" inkscape:connector-curvature="0" fill="#FFFFFF" d="M-71.646,189.118c-0.148-0.33-0.273-0.687-0.379-1.061
			c-0.099-0.373-0.178-0.756-0.222-1.147c-0.416,0.72-0.952,1.317-1.619,1.788c-0.67,0.472-1.472,0.709-2.4,0.709
			c-1.549,0-2.738-0.396-3.576-1.197c-0.838-0.792-1.258-1.877-1.258-3.258c0-1.441,0.561-2.562,1.67-3.362
			c1.119-0.792,2.75-1.192,4.885-1.192h2.229v-1.177c0-0.71-0.183-1.264-0.562-1.655c-0.373-0.392-0.927-0.584-1.653-0.584
			c-0.643,0-1.146,0.159-1.496,0.466c-0.35,0.315-0.524,0.751-0.524,1.302l-3.853-0.007l-0.013-0.08
			c-0.065-1.246,0.477-2.322,1.625-3.229s2.657-1.363,4.519-1.363c1.772,0,3.204,0.446,4.301,1.344
			c1.102,0.896,1.654,2.182,1.654,3.834v6.105c0,0.692,0.05,1.346,0.16,1.949c0.104,0.614,0.267,1.219,0.495,1.816H-71.646z
			 M-75.299,186.455c0.708,0,1.328-0.168,1.875-0.515c0.546-0.347,0.919-0.748,1.107-1.202v-2.092h-2.229
			c-0.844,0-1.488,0.215-1.927,0.643c-0.435,0.419-0.651,0.925-0.651,1.529c0,0.49,0.165,0.891,0.487,1.186
			C-76.303,186.307-75.861,186.455-75.299,186.455"/>
	</g>
	<g id="g48" transform="translate(222.8955,34.1367)">
		<path id="path50" inkscape:connector-curvature="0" fill="#FFFFFF" d="M-81.72,158.331l-1.457-0.045
			c-0.599,0-1.085,0.125-1.469,0.373c-0.382,0.25-0.67,0.598-0.87,1.035v9.983h-3.977v-14.772h3.699l0.183,2.18
			c0.346-0.772,0.792-1.37,1.344-1.806c0.556-0.427,1.185-0.651,1.904-0.651c0.2,0,0.383,0.02,0.552,0.047
			c0.172,0.036,0.342,0.07,0.516,0.115L-81.72,158.331z"/>
	</g>
	<g id="g52" transform="translate(235.0625,25.2939)">
		<path id="path54" inkscape:connector-curvature="0" fill="#FFFFFF" d="M-86.786,172.335h-1.088v6.186h-3.986v-21.305h3.986V169.3
			h0.982l3.427-5.552h4.619l-4.729,6.692l5.45,8.08h-4.575L-86.786,172.335z"/>
	</g>
	<g id="g56" transform="translate(262.7104,14.1934)">
		<path id="path58" inkscape:connector-curvature="0" fill="#FFFFFF" d="M-98.297,189.914c-2.14,0-3.84-0.686-5.117-2.048
			c-1.272-1.368-1.903-3.104-1.903-5.205v-0.552c0-2.188,0.595-3.995,1.802-5.419c1.209-1.424,2.833-2.128,4.863-2.118
			c1.989,0,3.537,0.604,4.638,1.808c1.108,1.2,1.655,2.831,1.655,4.875v2.173h-8.825l-0.026,0.079
			c0.077,0.971,0.399,1.771,0.969,2.394c0.588,0.623,1.376,0.936,2.363,0.936c0.886,0,1.615-0.082,2.194-0.26
			c0.587-0.176,1.221-0.462,1.911-0.846l1.09,2.467c-0.603,0.498-1.387,0.906-2.366,1.227
			C-96.019,189.753-97.105,189.914-98.297,189.914 M-98.653,177.644c-0.739,0-1.326,0.284-1.749,0.854
			c-0.437,0.562-0.7,1.308-0.801,2.225l0.043,0.07h4.895v-0.354c0-0.856-0.204-1.523-0.597-2.029
			C-97.255,177.9-97.852,177.644-98.653,177.644"/>
	</g>
	<g id="g60" transform="translate(284.9902,46.2119)">
		<path id="path62" inkscape:connector-curvature="0" fill="#FFFFFF" d="M-107.573,139.208v3.622h2.483v2.794h-2.483v7.529
			c0,0.578,0.109,0.987,0.347,1.229c0.246,0.248,0.553,0.373,0.951,0.373c0.222,0,0.392-0.02,0.543-0.037
			c0.151-0.025,0.338-0.063,0.529-0.114l0.341,2.883c-0.393,0.133-0.781,0.236-1.172,0.303c-0.384,0.07-0.798,0.106-1.247,0.106
			c-1.375,0-2.438-0.384-3.177-1.129c-0.74-0.759-1.103-1.959-1.103-3.601v-7.542h-2.167v-2.794h2.167v-3.622H-107.573z"/>
	</g>
	<path id="path64" inkscape:connector-curvature="0" fill="#FFFFFF" d="M186.625,185.5h-3.985v-2.984h3.985V185.5z M186.625,203.814
		h-3.985v-14.78h3.985V203.814z"/>
	<g id="g66" transform="translate(312.6396,40.0068)">
		<path id="path68" inkscape:connector-curvature="0" fill="#FFFFFF" d="M-119.085,149.035l0.173,2.118
			c0.499-0.756,1.099-1.345,1.818-1.762c0.722-0.419,1.519-0.634,2.425-0.634c1.489,0,2.661,0.474,3.479,1.407
			c0.855,0.943,1.273,2.411,1.273,4.414v9.235h-4.008v-9.245c0-0.997-0.191-1.699-0.593-2.117c-0.408-0.409-1.019-0.622-1.823-0.622
			c-0.531,0-1.002,0.107-1.42,0.333c-0.419,0.208-0.771,0.512-1.046,0.903v10.748h-3.988v-14.779H-119.085z"/>
	</g>
	<g id="g70" transform="translate(332.3809,27.1377)">
		<path id="path72" inkscape:connector-curvature="0" fill="#FFFFFF" d="M-127.305,169.415c0-2.331,0.509-4.209,1.517-5.642
			c1.029-1.423,2.438-2.146,4.271-2.146c0.833,0,1.56,0.188,2.187,0.563c0.636,0.373,1.169,0.907,1.615,1.602l0.32-1.887h3.438
			v14.709c0,1.923-0.631,3.409-1.89,4.458c-1.27,1.05-3.016,1.585-5.269,1.585c-0.743,0-1.538-0.107-2.371-0.313
			c-0.85-0.204-1.62-0.489-2.322-0.846l0.733-2.973c0.604,0.295,1.235,0.509,1.86,0.659c0.637,0.151,1.325,0.231,2.077,0.231
			c1.086,0,1.888-0.231,2.406-0.687c0.509-0.461,0.772-1.165,0.772-2.133v-1.334c-0.442,0.549-0.953,0.978-1.541,1.266
			c-0.594,0.29-1.272,0.441-2.034,0.441c-1.823,0-3.225-0.668-4.254-2.002c-1.008-1.335-1.517-3.087-1.517-5.273V169.415z
			 M-123.305,169.694c0,1.313,0.215,2.335,0.651,3.084c0.427,0.748,1.137,1.113,2.122,1.113c0.607,0,1.124-0.108,1.556-0.329
			c0.423-0.231,0.753-0.553,1.017-0.988v-6.46c-0.264-0.445-0.594-0.793-1.017-1.04c-0.432-0.252-0.938-0.375-1.524-0.375
			c-0.976,0-1.692,0.436-2.146,1.307c-0.438,0.874-0.658,2.003-0.658,3.409V169.694z"/>
	</g>
	<g id="g74" transform="translate(76.1958,145.2217)">
		<path id="path76" inkscape:connector-curvature="0" fill="#FFFFFF" d="M-20.642-17.588c5.034,4.7,7.553,10.378,7.553,17.027
			c0,6.653-2.519,12.33-7.553,17.03c-5.034,4.704-11.119,7.052-18.251,7.052h-24.083V9.762h24.083c3.329,0,6.164-1.008,8.516-3.03
			c2.35-2.015,3.526-4.445,3.526-7.292c0-2.842-1.176-5.277-3.526-7.291c-2.352-2.018-5.187-3.026-8.516-3.026h-24.083v-13.761
			h24.083C-31.76-24.639-25.676-22.291-20.642-17.588"/>
	</g>
	<path id="path78" inkscape:connector-curvature="0" fill="#FFFFFF" d="M83.119,168.742H69.359v-48.16h13.759V168.742z"/>
	<path id="path80" inkscape:connector-curvature="0" fill="#FFFFFF" d="M162.012,168.742h-13.765v-48.16h13.765V168.742z"/>
	<g id="g82" transform="translate(318.2588,157.3018)">
		<path id="path84" inkscape:connector-curvature="0" fill="#FFFFFF" d="M-121.425-36.719h-14.251h-13.403v13.761h13.403V11.44
			h0.484h13.279h0.487v-34.398h13.164v-13.761H-121.425z"/>
	</g>
	<g id="g86" transform="translate(422.8691,86.8701)">
		<path id="path88" inkscape:connector-curvature="0" fill="#FFFFFF" d="M-164.979,74.82c-4.694,5.029-10.371,7.547-17.027,7.547
			c-6.647,0-12.325-2.518-17.027-7.547c-4.703-5.036-7.048-11.12-7.048-18.25V33.712h13.762V56.57c0,3.324,1.007,6.163,3.022,8.513
			c2.014,2.355,4.452,3.522,7.291,3.522c2.843,0,5.275-1.167,7.302-3.522c2.014-2.351,3.019-5.189,3.019-8.513V33.712h13.769V56.57
			C-157.918,63.701-160.272,69.784-164.979,74.82"/>
	</g>
	<g id="g90" transform="translate(445.1904,116.0479)">
		<path id="path92" inkscape:connector-curvature="0" fill="#FFFFFF" d="M-174.273,28.613c0-6.649,2.519-12.328,7.554-17.028
			c5.028-4.701,11.12-7.05,18.257-7.05h22.855v13.761h-22.855c-3.328,0-6.168,1.008-8.522,3.026
			c-2.344,2.014-3.525,4.449-3.525,7.291H-174.273z"/>
	</g>
	<g id="g94" transform="translate(528.5723,116.0479)">
		<path id="path96" inkscape:connector-curvature="0" fill="#FFFFFF" d="M-208.989,28.613c0,6.653-2.522,12.329-7.554,17.03
			c-5.033,4.704-11.112,7.052-18.246,7.052h-22.866V38.936h22.866c3.326,0,6.165-1.01,8.509-3.03
			c2.351-2.015,3.528-4.446,3.528-7.292H-208.989z"/>
	</g>
	<g id="g98" transform="translate(163.7578,128.54)">
		<path id="path100" inkscape:connector-curvature="0" fill="#FFFFFF" d="M-57.098,8.83c2.347-2.019,5.188-3.026,8.514-3.026h22.86
			V-7.957h-22.86c-7.133,0-13.218,2.349-18.25,7.05c-5.033,4.7-7.55,10.379-7.55,17.028c0,6.654,2.518,12.329,7.55,17.03
			c5.032,4.704,11.117,7.052,18.25,7.052h9.097h13.763V26.444V12.768h-13.763v13.676h-9.097c-3.325,0-6.167-1.011-8.514-3.026
			c-2.354-2.02-3.528-4.45-3.528-7.297C-60.626,13.278-59.452,10.843-57.098,8.83"/>
	</g>
</g>
</svg>
