<?xml version="1.0" encoding="UTF-8" standalone="no"?>
<!-- Created with Inkscape (http://www.inkscape.org/) -->

<svg
   xmlns:dc="http://purl.org/dc/elements/1.1/"
   xmlns:cc="http://creativecommons.org/ns#"
   xmlns:rdf="http://www.w3.org/1999/02/22-rdf-syntax-ns#"
   xmlns:svg="http://www.w3.org/2000/svg"
   xmlns="http://www.w3.org/2000/svg"
   xmlns:inkscape="http://www.inkscape.org/namespaces/inkscape"
   version="1.1"
   width="662.59998"
   height="549.21252"
   id="svg2"
   xml:space="preserve"><metadata
     id="metadata8"><rdf:RDF><cc:Work
         rdf:about=""><dc:format>image/svg+xml</dc:format><dc:type
           rdf:resource="http://purl.org/dc/dcmitype/StillImage" /></cc:Work></rdf:RDF></metadata><defs
     id="defs6"><clipPath
       id="clipPath16"><path
         d="m 0,439.37 530.08,0 L 530.08,0 0,0 0,439.37 z"
         inkscape:connector-curvature="0"
         id="path18" /></clipPath></defs><g
     transform="matrix(1.25,0,0,-1.25,0,549.2125)"
     id="g10"><g
       id="g12"><g
         clip-path="url(#clipPath16)"
         id="g14"><g
           transform="translate(3.7383,27.7314)"
           id="g20"><path
             d="m 0,0 c 0,3.721 1.019,6.77 3.067,9.164 2.035,2.395 4.746,3.585 8.125,3.585 3.383,0 6.09,-1.19 8.143,-3.585 C 21.374,6.77 22.395,3.721 22.395,0 l 0,-0.777 c 0,-3.749 -1.021,-6.814 -3.052,-9.192 -2.039,-2.379 -4.738,-3.569 -8.12,-3.569 -3.395,0 -6.121,1.19 -8.156,3.569 C 1.019,-7.591 0,-4.526 0,-0.777 L 0,0 z m 2.799,-0.777 c 0,-2.924 0.751,-5.38 2.235,-7.379 1.475,-1.994 3.545,-2.99 6.189,-2.99 2.608,0 4.662,0.996 6.152,2.99 1.49,1.999 2.235,4.455 2.235,7.379 l 0,0.777 c 0,2.883 -0.751,5.336 -2.241,7.352 -1.508,2.009 -3.561,3.002 -6.177,3.002 C 8.563,10.354 6.509,9.361 5.034,7.352 3.55,5.336 2.799,2.883 2.799,0 l 0,-0.777 z"
             inkscape:connector-curvature="0"
             id="path22"
             style="fill:#000000;fill-opacity:1;fill-rule:nonzero;stroke:none" /></g><g
           transform="translate(34.4653,40.0068)"
           id="g24"><path
             d="m 0,0 0.252,-4.421 c 0.819,1.552 1.909,2.757 3.293,3.604 1.38,0.861 3.012,1.291 4.902,1.291 2.749,0 4.834,-0.842 6.278,-2.517 1.424,-1.676 2.145,-4.301 2.145,-7.854 l 0,-15.425 -2.804,0 0,15.442 c 0,2.889 -0.553,4.956 -1.621,6.161 -1.093,1.201 -2.633,1.797 -4.631,1.797 -1.967,0 -3.567,-0.517 -4.81,-1.553 C 1.766,-4.516 0.866,-5.899 0.329,-7.623 l 0,-17.699 -2.809,0 L -2.48,0 0,0 z"
             inkscape:connector-curvature="0"
             id="path26"
             style="fill:#000000;fill-opacity:1;fill-rule:nonzero;stroke:none" /></g><path
           d="m 59.012,14.685 2.779,0 0,36.514 -2.779,0 0,-36.514 z"
           inkscape:connector-curvature="0"
           id="path28"
           style="fill:#000000;fill-opacity:1;fill-rule:nonzero;stroke:none" /><path
           d="m 69.887,47.265 2.786,0 0,3.934 -2.786,0 0,-3.934 z m 0,-32.58 2.786,0 0,25.322 -2.786,0 0,-25.322 z"
           inkscape:connector-curvature="0"
           id="path30"
           style="fill:#000000;fill-opacity:1;fill-rule:nonzero;stroke:none" /><g
           transform="translate(82.9028,40.0068)"
           id="g32"><path
             d="m 0,0 0.259,-4.421 c 0.814,1.552 1.903,2.757 3.286,3.604 1.387,0.861 3.018,1.291 4.91,1.291 2.747,0 4.833,-0.842 6.276,-2.517 1.418,-1.676 2.148,-4.301 2.148,-7.854 l 0,-15.425 -2.81,0 0,15.442 c 0,2.889 -0.549,4.956 -1.624,6.161 -1.092,1.201 -2.625,1.797 -4.622,1.797 -1.967,0 -3.567,-0.517 -4.806,-1.553 C 1.773,-4.516 0.874,-5.899 0.328,-7.623 l 0,-17.699 -2.802,0 L -2.474,0 0,0 z"
             inkscape:connector-curvature="0"
             id="path34"
             style="fill:#000000;fill-opacity:1;fill-rule:nonzero;stroke:none" /></g><g
           transform="translate(116.606,14.1934)"
           id="g36"><path
             d="M 0,0 C -3.172,0 -5.801,1.175 -7.902,3.509 -10,5.854 -11.047,8.813 -11.047,12.41 l 0,1.281 c 0,3.614 1.047,6.617 3.121,9.011 2.086,2.395 4.608,3.585 7.574,3.585 3.107,0 5.541,-0.977 7.331,-2.958 1.773,-1.954 2.66,-4.575 2.66,-7.852 l 0,-2.395 -17.885,0 0,-0.672 c 0,-2.849 0.768,-5.228 2.273,-7.148 1.513,-1.908 3.516,-2.87 5.973,-2.87 1.751,0 3.239,0.231 4.462,0.719 1.234,0.486 2.287,1.19 3.172,2.089 L 8.82,3.277 C 7.868,2.273 6.666,1.481 5.207,0.883 3.748,0.306 2.014,0 0,0 m -0.352,23.892 c -2.076,0 -3.81,-0.778 -5.221,-2.364 -1.407,-1.585 -2.226,-3.551 -2.451,-5.929 l 0.046,-0.122 14.84,0 0,0.7 c 0,2.18 -0.649,4.024 -1.947,5.506 -1.294,1.476 -3.052,2.209 -5.267,2.209"
             inkscape:connector-curvature="0"
             id="path38"
             style="fill:#000000;fill-opacity:1;fill-rule:nonzero;stroke:none" /></g><g
           transform="translate(148.7139,40.0068)"
           id="g40"><path
             d="m 0,0 0.275,-3.338 c 0.819,1.218 1.833,2.148 3.056,2.819 1.22,0.658 2.64,0.993 4.25,0.993 1.621,0 3.003,-0.368 4.162,-1.085 1.15,-0.715 2.036,-1.801 2.619,-3.245 0.782,1.356 1.794,2.4 3.046,3.184 1.25,0.763 2.711,1.146 4.402,1.146 2.49,0 4.458,-0.854 5.909,-2.594 1.435,-1.723 2.164,-4.346 2.164,-7.866 l 0,-15.336 -6.839,0 0,15.395 c 0,1.923 -0.306,3.255 -0.931,4.011 -0.625,0.746 -1.551,1.128 -2.776,1.128 -0.977,0 -1.819,-0.213 -2.532,-0.654 -0.7,-0.428 -1.274,-1.024 -1.684,-1.786 0,-0.305 0,-0.563 0.014,-0.762 0.015,-0.215 0.026,-0.426 0.026,-0.656 l 0,-16.676 -6.809,0 0,15.395 c 0,1.877 -0.312,3.202 -0.934,3.98 -0.626,0.763 -1.564,1.159 -2.814,1.159 -0.92,0 -1.73,-0.186 -2.42,-0.532 C 1.49,-5.673 0.915,-6.174 0.471,-6.814 l 0,-18.508 -6.809,0 L -6.338,0 0,0 z"
             inkscape:connector-curvature="0"
             id="path42"
             style="fill:#000000;fill-opacity:1;fill-rule:nonzero;stroke:none" /></g><g
           transform="translate(198.7002,14.6963)"
           id="g44"><path
             d="M 0,0 C -0.254,0.565 -0.469,1.176 -0.649,1.816 -0.819,2.455 -0.955,3.111 -1.03,3.782 -1.743,2.55 -2.661,1.526 -3.804,0.718 c -1.149,-0.807 -2.522,-1.214 -4.113,-1.214 -2.655,0 -4.691,0.68 -6.126,2.052 -1.437,1.356 -2.156,3.216 -2.156,5.581 0,2.47 0.961,4.389 2.863,5.761 1.916,1.358 4.711,2.043 8.369,2.043 l 3.819,0 0,2.016 c 0,1.217 -0.313,2.164 -0.962,2.836 -0.639,0.671 -1.588,1.002 -2.832,1.002 -1.101,0 -1.963,-0.273 -2.562,-0.798 -0.599,-0.541 -0.898,-1.288 -0.898,-2.232 l -6.602,0.012 -0.021,0.137 c -0.113,2.135 0.817,3.98 2.785,5.535 1.967,1.554 4.551,2.335 7.742,2.335 3.037,0 5.49,-0.764 7.37,-2.303 1.887,-1.534 2.833,-3.737 2.833,-6.569 l 0,-10.462 C 5.705,5.264 5.792,4.146 5.979,3.111 6.158,2.059 6.437,1.023 6.827,0 L 0,0 z m -6.258,4.562 c 1.214,0 2.275,0.288 3.213,0.882 0.935,0.594 1.575,1.281 1.897,2.06 l 0,3.583 -3.819,0 c -1.447,0 -2.549,-0.367 -3.301,-1.099 -0.745,-0.719 -1.116,-1.586 -1.116,-2.621 0,-0.84 0.282,-1.526 0.835,-2.031 0.57,-0.519 1.328,-0.774 2.291,-0.774"
             inkscape:connector-curvature="0"
             id="path46"
             style="fill:#000000;fill-opacity:1;fill-rule:nonzero;stroke:none" /></g><g
           transform="translate(222.8955,34.1367)"
           id="g48"><path
             d="m 0,0 -2.496,0.076 c -1.026,0 -1.859,-0.213 -2.517,-0.638 -0.655,-0.428 -1.148,-1.024 -1.491,-1.773 l 0,-17.105 -6.814,0 0,25.31 6.338,0 0.313,-3.736 c 0.593,1.324 1.357,2.348 2.303,3.095 0.953,0.732 2.03,1.115 3.262,1.115 0.343,0 0.656,-0.033 0.946,-0.079 C 0.139,6.204 0.43,6.145 0.728,6.067 L 0,0 z"
             inkscape:connector-curvature="0"
             id="path50"
             style="fill:#000000;fill-opacity:1;fill-rule:nonzero;stroke:none" /></g><g
           transform="translate(235.0625,25.2939)"
           id="g52"><path
             d="m 0,0 -1.865,0 0,-10.598 -6.829,0 0,36.502 6.829,0 0,-20.704 1.684,0 5.872,9.513 7.914,0 -8.103,-11.467 9.339,-13.844 -7.839,0 L 0,0 z"
             inkscape:connector-curvature="0"
             id="path54"
             style="fill:#000000;fill-opacity:1;fill-rule:nonzero;stroke:none" /></g><g
           transform="translate(262.7104,14.1934)"
           id="g56"><path
             d="m 0,0 c -3.666,0 -6.579,1.175 -8.768,3.509 -2.18,2.345 -3.26,5.319 -3.26,8.919 l 0,0.944 c 0,3.749 1.02,6.845 3.087,9.285 2.072,2.44 4.855,3.646 8.331,3.63 3.408,0 6.061,-1.037 7.947,-3.098 1.899,-2.056 2.836,-4.849 2.836,-8.353 l 0,-3.722 -15.121,0 -0.045,-0.136 c 0.131,-1.663 0.684,-3.036 1.659,-4.1 1.009,-1.068 2.359,-1.603 4.05,-1.603 1.519,0 2.767,0.14 3.759,0.444 C 5.481,6.021 6.568,6.51 7.75,7.168 L 9.617,2.942 C 8.586,2.088 7.241,1.388 5.564,0.84 3.904,0.276 2.042,0 0,0 m -0.61,21.025 c -1.265,0 -2.271,-0.488 -2.995,-1.463 -0.749,-0.961 -1.199,-2.24 -1.372,-3.812 l 0.074,-0.12 8.386,0 0,0.605 c 0,1.468 -0.35,2.61 -1.022,3.477 -0.676,0.872 -1.699,1.313 -3.071,1.313"
             inkscape:connector-curvature="0"
             id="path58"
             style="fill:#000000;fill-opacity:1;fill-rule:nonzero;stroke:none" /></g><g
           transform="translate(284.9902,46.2119)"
           id="g60"><path
             d="m 0,0 0,-6.205 4.256,0 0,-4.788 -4.256,0 0,-12.9 c 0,-0.991 0.188,-1.693 0.594,-2.105 0.421,-0.424 0.947,-0.639 1.631,-0.639 0.379,0 0.671,0.033 0.93,0.063 0.259,0.044 0.578,0.107 0.907,0.197 l 0.584,-4.939 c -0.673,-0.229 -1.339,-0.406 -2.009,-0.52 -0.657,-0.12 -1.366,-0.183 -2.136,-0.183 -2.357,0 -4.177,0.659 -5.443,1.935 -1.269,1.3 -1.889,3.356 -1.889,6.17 l 0,12.921 -3.713,0 0,4.788 3.713,0 0,6.205 L 0,0 z"
             inkscape:connector-curvature="0"
             id="path62"
             style="fill:#000000;fill-opacity:1;fill-rule:nonzero;stroke:none" /></g><path
           d="m 300.767,46.075 -6.827,0 0,5.114 6.827,0 0,-5.114 z m 0,-31.379 -6.827,0 0,25.324 6.827,0 0,-25.324 z"
           inkscape:connector-curvature="0"
           id="path64"
           style="fill:#000000;fill-opacity:1;fill-rule:nonzero;stroke:none" /><g
           transform="translate(312.6396,40.0068)"
           id="g66"><path
             d="m 0,0 0.297,-3.63 c 0.855,1.295 1.882,2.304 3.116,3.019 1.236,0.717 2.601,1.085 4.154,1.085 2.551,0 4.56,-0.811 5.962,-2.411 1.465,-1.616 2.181,-4.13 2.181,-7.562 l 0,-15.823 -6.867,0 0,15.839 c 0,1.708 -0.328,2.913 -1.015,3.629 -0.7,0.7 -1.746,1.066 -3.124,1.066 -0.91,0 -1.717,-0.186 -2.433,-0.572 C 1.554,-5.716 0.949,-6.235 0.48,-6.907 l 0,-18.415 -6.834,0 L -6.354,0 0,0 z"
             inkscape:connector-curvature="0"
             id="path68"
             style="fill:#000000;fill-opacity:1;fill-rule:nonzero;stroke:none" /></g><g
           transform="translate(332.3809,27.1377)"
           id="g70"><path
             d="m 0,0 c 0,3.995 0.872,7.212 2.599,9.667 1.762,2.437 4.178,3.676 7.318,3.676 1.427,0 2.672,-0.323 3.746,-0.963 1.089,-0.639 2.003,-1.554 2.768,-2.744 l 0.548,3.233 5.891,0 0,-25.202 c 0,-3.294 -1.082,-5.842 -3.238,-7.638 -2.175,-1.8 -5.167,-2.716 -9.027,-2.716 -1.273,0 -2.636,0.184 -4.063,0.535 -1.456,0.351 -2.776,0.838 -3.979,1.45 l 1.258,5.092 c 1.035,-0.505 2.116,-0.87 3.187,-1.128 1.09,-0.261 2.27,-0.397 3.559,-0.397 1.86,0 3.234,0.397 4.122,1.175 0.872,0.791 1.323,1.996 1.323,3.656 l 0,2.285 c -0.757,-0.942 -1.633,-1.675 -2.639,-2.169 -1.019,-0.497 -2.181,-0.756 -3.485,-0.756 -3.124,0 -5.527,1.145 -7.289,3.43 C 0.872,-7.226 0,-4.225 0,-0.479 L 0,0 z m 6.854,-0.479 c 0,-2.249 0.368,-4.001 1.115,-5.284 0.731,-1.281 1.948,-1.906 3.635,-1.906 1.042,0 1.928,0.185 2.667,0.564 0.724,0.396 1.29,0.946 1.741,1.692 l 0,11.069 C 15.561,6.419 14.995,7.015 14.271,7.438 13.532,7.868 12.664,8.081 11.658,8.081 9.987,8.081 8.76,7.334 7.982,5.842 7.229,4.344 6.854,2.41 6.854,0 l 0,-0.479 z"
             inkscape:connector-curvature="0"
             id="path72"
             style="fill:#000000;fill-opacity:1;fill-rule:nonzero;stroke:none" /></g><g
           transform="translate(76.1958,145.2217)"
           id="g74"><path
             d="m 0,0 c 8.625,-8.052 12.94,-17.782 12.94,-29.174 0,-11.399 -4.315,-21.125 -12.94,-29.178 -8.626,-8.06 -19.051,-12.083 -31.271,-12.083 l -41.264,0 0,23.574 41.264,0 c 5.703,0 10.561,1.728 14.591,5.192 4.026,3.453 6.041,7.617 6.041,12.495 0,4.87 -2.015,9.042 -6.041,12.492 -4.03,3.458 -8.888,5.185 -14.591,5.185 l -41.264,0 0,23.577 41.264,0 C -19.051,12.08 -8.626,8.057 0,0"
             inkscape:connector-curvature="0"
             id="path76"
             style="fill:#231f20;fill-opacity:1;fill-rule:nonzero;stroke:none" /></g><path
           d="m 123.423,74.787 -23.574,0 0,82.515 23.574,0 0,-82.515 z"
           inkscape:connector-curvature="0"
           id="path78"
           style="fill:#231f20;fill-opacity:1;fill-rule:nonzero;stroke:none" /><path
           d="m 258.597,74.787 -23.584,0 0,82.515 23.584,0 0,-82.515 z"
           inkscape:connector-curvature="0"
           id="path80"
           style="fill:#231f20;fill-opacity:1;fill-rule:nonzero;stroke:none" /><g
           transform="translate(318.2588,157.3018)"
           id="g82"><path
             d="m 0,0 -24.417,0 -22.965,0 0,-23.577 22.965,0 0,-58.938 0.829,0 22.753,0 0.835,0 0,58.938 22.555,0 L 22.555,0 0,0 z"
             inkscape:connector-curvature="0"
             id="path84"
             style="fill:#231f20;fill-opacity:1;fill-rule:nonzero;stroke:none" /></g><g
           transform="translate(422.8691,86.8701)"
           id="g86"><path
             d="m 0,0 c -8.043,-8.618 -17.768,-12.931 -29.174,-12.931 -11.389,0 -21.116,4.313 -29.174,12.931 -8.058,8.628 -12.076,19.051 -12.076,31.27 l 0,39.162 23.58,0 0,-39.162 c 0,-5.696 1.724,-10.56 5.178,-14.587 3.45,-4.035 7.629,-6.035 12.492,-6.035 4.872,0 9.039,2 12.51,6.035 3.452,4.027 5.174,8.891 5.174,14.587 l 0,39.162 23.589,0 0,-39.162 C 12.099,19.051 8.065,8.628 0,0"
             inkscape:connector-curvature="0"
             id="path88"
             style="fill:#231f20;fill-opacity:1;fill-rule:nonzero;stroke:none" /></g><g
           transform="translate(445.1904,116.0479)"
           id="g90"><path
             d="m 0,0 c 0,11.392 4.314,21.122 12.942,29.174 8.615,8.056 19.053,12.08 31.28,12.08 l 39.16,0 0,-23.577 -39.16,0 C 38.519,17.677 33.655,15.95 29.62,12.492 25.606,9.042 23.579,4.87 23.579,0 L 0,0 z"
             inkscape:connector-curvature="0"
             id="path92"
             style="fill:#231f20;fill-opacity:1;fill-rule:nonzero;stroke:none" /></g><g
           transform="translate(528.5723,116.0479)"
           id="g94"><path
             d="m 0,0 c 0,-11.399 -4.322,-21.125 -12.942,-29.178 -8.623,-8.06 -19.039,-12.083 -31.262,-12.083 l -39.178,0 0,23.574 39.178,0 c 5.698,0 10.563,1.731 14.578,5.192 4.027,3.453 6.047,7.617 6.047,12.495 L 0,0 z"
             inkscape:connector-curvature="0"
             id="path96"
             style="fill:#231f20;fill-opacity:1;fill-rule:nonzero;stroke:none" /></g><g
           transform="translate(163.7578,128.54)"
           id="g98"><path
             d="m 0,0 c 4.021,3.458 8.889,5.185 14.587,5.185 l 39.167,0 0,23.577 -39.167,0 c -12.221,0 -22.647,-4.024 -31.269,-12.08 -8.623,-8.052 -12.937,-17.783 -12.937,-29.174 0,-11.4 4.314,-21.125 12.937,-29.178 8.622,-8.06 19.048,-12.083 31.269,-12.083 l 15.586,0 23.581,0 0,23.573 0,23.433 -23.581,0 0,-23.433 -15.586,0 c -5.698,0 -10.566,1.732 -14.587,5.186 -4.033,3.46 -6.045,7.624 -6.045,12.502 0,4.87 2.012,9.042 6.045,12.492"
             inkscape:connector-curvature="0"
             id="path100"
             style="fill:#231f20;fill-opacity:1;fill-rule:nonzero;stroke:none" /></g><g
           transform="translate(295.5605,392.5986)"
           id="g102"><path
             d="m 0,0 -41.795,-30.485 0,43.61"
             inkscape:connector-curvature="0"
             id="path104"
             style="fill:#2b388f;fill-opacity:1;fill-rule:nonzero;stroke:none" /></g><g
           transform="translate(368.707,319.4448)"
           id="g106"><path
             d="m 0,0 -114.941,0 0,-75.758 L 0,0 z"
             inkscape:connector-curvature="0"
             id="path108"
             style="fill:#2b388f;fill-opacity:1;fill-rule:nonzero;stroke:none" /></g><g
           transform="translate(253.7656,379.127)"
           id="g110"><path
             d="M 0,0 0,-92.645 91.426,-36.155 62.263,-7.008 0,0 z"
             inkscape:connector-curvature="0"
             id="path112"
             style="fill:#26a9e0;fill-opacity:1;fill-rule:nonzero;stroke:none" /></g><g
           transform="translate(253.7656,244.8037)"
           id="g114"><path
             d="M 0,0 0,-80.02 134.817,54.765 114.941,74.649 0,0 z"
             inkscape:connector-curvature="0"
             id="path116"
             style="fill:#26a9e0;fill-opacity:1;fill-rule:nonzero;stroke:none" /></g><g
           transform="translate(253.7656,405.7241)"
           id="g118"><path
             d="M 0,0 0,28.54 41.795,-13.125 0,0 z"
             inkscape:connector-curvature="0"
             id="path120"
             style="fill:#26a9e0;fill-opacity:1;fill-rule:nonzero;stroke:none" /></g><g
           transform="translate(253.7656,434.2695)"
           id="g122"><path
             d="M 0,0 0,-269.485 -134.678,-134.689 0,0 z"
             inkscape:connector-curvature="0"
             id="path124"
             style="fill:#1b75bb;fill-opacity:1;fill-rule:nonzero;stroke:none" /></g></g></g></g></svg>